<?xml version="1.0" standalone="no"?>
<!DOCTYPE svg PUBLIC "-//W3C//DTD SVG 20010904//EN"
 "http://www.w3.org/TR/2001/REC-SVG-20010904/DTD/svg10.dtd">
<svg version="1.0" xmlns="http://www.w3.org/2000/svg"
 width="3590.000000pt" height="3590.000000pt" viewBox="0 0 3590.000000 3590.000000"
 preserveAspectRatio="xMidYMid meet">
<metadata>
Created by potrace 1.11, written by Peter Selinger 2001-2013
</metadata>
<g transform="translate(0.000000,3590.000000) scale(0.100000,-0.100000)"
fill="#000000" stroke="none">
<path d="M9266 30013 c-1 -2 -126 -5 -277 -8 -151 -3 -341 -8 -424 -10 -307
-10 -410 -14 -410 -15 0 -1 -102 -6 -285 -14 -63 -3 -144 -8 -180 -11 -36 -3
-103 -8 -150 -10 -47 -3 -107 -7 -135 -9 -27 -3 -89 -7 -137 -10 -48 -3 -97
-8 -110 -10 -13 -3 -63 -8 -113 -11 -105 -7 -121 -9 -335 -30 -19 -2 -55 -6
-80 -9 -25 -3 -67 -8 -95 -11 -27 -3 -70 -8 -95 -10 -25 -3 -56 -8 -70 -10
-14 -3 -50 -7 -80 -10 -30 -2 -66 -6 -80 -9 -14 -3 -45 -7 -70 -10 -25 -3 -56
-8 -70 -10 -14 -3 -47 -8 -75 -11 -92 -12 -103 -14 -162 -24 -102 -18 -137
-23 -163 -27 -33 -4 -74 -11 -135 -24 -27 -6 -66 -12 -85 -14 -19 -3 -35 -5
-35 -6 0 -2 -33 -9 -70 -14 -16 -3 -37 -7 -45 -10 -8 -3 -26 -7 -40 -10 -84
-15 -254 -52 -375 -83 -77 -19 -149 -37 -160 -39 -11 -2 -69 -18 -130 -35 -60
-17 -117 -31 -125 -33 -9 -1 -20 -5 -25 -8 -8 -4 -52 -16 -85 -23 -11 -2 -117
-37 -135 -45 -11 -4 -65 -22 -120 -40 -55 -17 -109 -35 -120 -40 -28 -13 -238
-91 -250 -94 -5 -1 -37 -14 -70 -30 -33 -15 -94 -41 -135 -59 -97 -40 -429
-209 -545 -276 -49 -29 -155 -96 -234 -149 -79 -53 -154 -104 -166 -112 -27
-18 -142 -107 -170 -132 -11 -9 -53 -45 -94 -78 -148 -122 -334 -310 -497
-502 -41 -48 -74 -90 -74 -93 0 -3 -9 -15 -20 -27 -11 -12 -32 -40 -47 -62
-16 -23 -33 -46 -39 -53 -22 -23 -164 -241 -164 -251 0 -6 -4 -12 -8 -14 -13
-5 -96 -155 -193 -350 -49 -97 -89 -179 -89 -182 0 -2 -10 -26 -22 -53 -12
-26 -22 -50 -22 -53 -2 -7 -46 -117 -62 -155 -7 -16 -23 -61 -35 -100 -12 -38
-26 -76 -32 -82 -5 -7 -6 -13 -3 -13 4 0 2 -8 -3 -18 -16 -29 -113 -367 -127
-441 -3 -14 -7 -28 -10 -33 -3 -5 -7 -21 -10 -36 -5 -27 -20 -98 -50 -222 -8
-36 -17 -78 -19 -95 -3 -16 -14 -79 -25 -140 -11 -60 -23 -126 -25 -145 -3
-19 -10 -61 -16 -92 -14 -81 -49 -343 -54 -408 -2 -30 -7 -68 -9 -85 -3 -16
-8 -59 -11 -95 -3 -36 -8 -82 -11 -102 -3 -21 -7 -61 -9 -90 -2 -29 -6 -82 -9
-118 -3 -36 -8 -99 -11 -140 -3 -41 -7 -102 -10 -135 -3 -33 -7 -107 -10 -165
-3 -58 -8 -141 -11 -185 -9 -150 -19 -458 -29 -900 -8 -355 -9 -8546 -1 -8795
10 -284 20 -518 31 -700 2 -47 7 -125 10 -175 3 -49 7 -117 10 -150 3 -33 7
-87 9 -120 3 -33 7 -89 10 -125 3 -36 8 -94 11 -130 3 -36 8 -83 10 -105 3
-22 7 -67 11 -100 7 -75 14 -131 19 -170 2 -16 6 -55 8 -85 3 -30 8 -66 11
-80 3 -14 8 -47 10 -75 3 -27 8 -61 10 -75 3 -14 10 -61 16 -105 6 -44 13 -96
16 -115 6 -35 10 -65 19 -130 3 -19 9 -55 15 -80 5 -25 12 -63 16 -85 3 -22 7
-49 9 -60 2 -11 13 -67 25 -125 12 -58 23 -114 25 -125 1 -11 5 -27 8 -35 2
-8 10 -42 17 -75 20 -102 117 -484 156 -615 20 -69 37 -131 37 -137 0 -7 4
-13 8 -13 4 0 10 -16 13 -36 4 -19 36 -117 72 -217 36 -100 66 -186 68 -192 1
-5 4 -15 8 -20 3 -6 25 -58 48 -115 23 -58 53 -129 66 -158 13 -29 24 -55 24
-58 0 -13 197 -396 265 -514 86 -149 262 -423 276 -428 5 -2 9 -8 9 -13 0 -7
100 -145 135 -186 6 -6 21 -26 35 -44 134 -176 441 -494 646 -669 66 -57 249
-203 273 -218 14 -9 28 -19 31 -23 3 -3 41 -31 85 -62 44 -31 85 -60 90 -65 8
-6 237 -150 300 -189 57 -35 121 -70 125 -70 3 0 25 -12 48 -27 85 -54 540
-274 622 -301 3 -1 27 -11 53 -23 27 -12 54 -22 61 -22 7 0 16 -4 22 -8 5 -5
32 -17 59 -27 28 -10 66 -25 85 -33 19 -9 41 -17 47 -18 15 -3 99 -32 128 -45
40 -17 327 -109 341 -109 8 0 22 -4 32 -10 18 -9 122 -41 157 -47 11 -2 27 -6
35 -10 8 -3 22 -7 30 -9 8 -2 105 -26 215 -54 178 -46 387 -94 455 -106 14 -2
36 -7 50 -10 14 -3 36 -8 50 -10 14 -2 36 -7 50 -10 14 -3 48 -10 75 -14 175
-30 345 -59 375 -64 19 -3 78 -12 130 -21 52 -8 118 -18 145 -21 28 -3 79 -10
115 -15 36 -5 83 -12 105 -14 22 -2 60 -7 85 -10 25 -3 68 -8 95 -10 28 -3 68
-8 90 -11 50 -8 84 -11 205 -19 52 -4 98 -9 101 -11 3 -2 44 -6 90 -9 84 -6
125 -9 254 -19 201 -15 312 -22 505 -31 281 -12 347 -14 535 -21 243 -8 17233
-8 17530 0 201 6 347 11 610 21 205 8 450 22 540 30 33 3 98 8 145 10 47 3
108 7 135 9 28 3 86 7 130 11 44 3 91 8 105 10 14 2 63 6 110 10 47 3 96 8
110 10 14 2 54 6 90 10 36 3 72 8 80 10 8 2 49 7 90 10 41 4 86 8 100 10 14 2
43 6 65 9 22 3 56 8 76 12 20 3 56 7 80 9 24 2 85 11 134 19 50 8 164 27 255
42 91 14 172 28 180 30 8 1 94 19 190 38 147 30 248 51 330 71 8 1 62 15 120
30 58 15 114 28 125 30 37 6 339 95 464 136 69 23 130 42 135 44 6 1 25 8 41
14 17 7 35 14 40 15 11 3 41 14 70 26 66 27 213 80 222 80 6 0 16 7 23 15 7 9
15 13 18 11 3 -3 17 1 31 8 14 8 60 29 101 46 79 35 389 188 477 237 81 44
189 111 298 182 55 36 104 68 109 70 11 5 245 179 266 198 8 7 42 35 75 61
179 141 425 381 615 601 159 184 400 522 509 716 96 168 231 423 236 445 1 3
16 36 34 74 52 114 58 126 105 241 25 60 46 113 46 116 0 4 10 29 22 56 12 26
22 50 23 53 7 31 40 118 48 127 5 7 7 13 3 13 -3 0 6 30 20 68 14 37 27 75 29
84 2 9 17 58 33 110 26 80 49 159 58 193 1 6 21 78 44 160 23 83 43 159 45
170 4 19 17 76 50 220 15 66 81 392 89 440 3 17 12 71 21 120 9 50 18 106 21
125 2 19 7 49 11 65 4 17 6 33 5 37 -1 4 3 31 9 60 5 29 12 70 14 92 3 21 12
88 20 150 9 61 18 134 21 161 2 28 9 84 14 125 15 125 22 183 26 225 6 71 18
206 29 322 3 34 8 90 10 125 2 35 6 98 10 140 3 42 8 112 11 155 2 43 7 114
10 158 2 44 7 130 9 190 3 61 7 162 10 225 15 344 17 843 17 4485 0 3672 -3
4256 -17 4670 -10 275 -15 419 -20 515 -3 52 -7 138 -10 190 -13 257 -16 292
-30 455 -3 28 -7 86 -10 130 -3 44 -8 98 -10 120 -2 22 -7 72 -10 110 -4 39
-9 90 -11 115 -3 25 -7 63 -9 85 -2 22 -6 56 -9 75 -3 19 -8 58 -11 85 -3 28
-7 61 -9 75 -2 14 -7 50 -10 80 -4 30 -9 66 -11 80 -9 51 -26 166 -30 205 -2
17 -5 30 -6 30 0 0 -3 12 -5 28 -1 15 -5 39 -8 55 -23 117 -37 192 -42 222 -3
19 -9 50 -14 69 -5 19 -7 38 -4 42 2 4 0 10 -6 14 -5 3 -10 17 -10 31 0 22
-91 398 -119 492 -5 18 -10 33 -10 35 0 1 -4 15 -10 30 -6 16 -11 32 -11 36 0
7 -75 240 -87 271 -4 8 -7 17 -7 20 -1 3 -4 10 -7 15 -4 6 -12 28 -19 50 -6
22 -20 59 -31 82 -10 24 -19 49 -19 56 0 7 -4 17 -8 23 -5 5 -21 41 -37 79
-46 114 -158 343 -219 449 -31 54 -56 102 -56 107 0 5 -4 9 -8 9 -5 0 -14 12
-21 28 -22 48 -233 358 -260 382 -4 3 -20 23 -36 45 -110 148 -376 424 -545
565 -36 30 -67 58 -70 61 -27 31 -413 305 -485 344 -11 6 -60 35 -110 65 -199
117 -507 266 -737 356 -51 20 -106 42 -123 49 -118 49 -506 174 -680 220 -55
14 -107 29 -115 32 -8 3 -24 7 -35 8 -11 2 -63 14 -115 28 -100 26 -254 63
-305 72 -16 3 -95 19 -175 35 -80 17 -158 32 -175 35 -95 14 -200 33 -200 35
0 1 -16 3 -35 5 -31 4 -89 13 -195 31 -16 3 -48 7 -70 10 -22 3 -85 12 -140
20 -108 16 -145 21 -215 28 -25 3 -63 7 -85 10 -22 3 -69 8 -105 11 -36 4 -68
9 -71 11 -3 2 -42 6 -85 9 -43 4 -95 8 -114 10 -60 7 -142 15 -220 20 -41 3
-91 8 -110 10 -39 5 -121 11 -250 20 -47 3 -110 8 -140 10 -30 3 -100 7 -155
10 -55 3 -138 7 -185 10 -185 12 -452 23 -685 29 -88 3 -160 5 -160 6 0 9
-1892 12 -9083 13 -4710 1 -8565 1 -8566 0z"/>
</g>
</svg>
