<?xml version="1.0" standalone="no"?>
<!DOCTYPE svg PUBLIC "-//W3C//DTD SVG 20010904//EN"
 "http://www.w3.org/TR/2001/REC-SVG-20010904/DTD/svg10.dtd">
<svg version="1.0" xmlns="http://www.w3.org/2000/svg"
 width="447.000000pt" height="447.000000pt" viewBox="0 0 447.000000 447.000000"
 preserveAspectRatio="xMidYMid meet">
<metadata>
Created by potrace 1.11, written by Peter Selinger 2001-2013
</metadata>
<g transform="translate(0.000000,447.000000) scale(0.100000,-0.100000)"
fill="#000000" stroke="none">
<path d="M352 4225 c-29 -8 -71 -24 -93 -35 -23 -11 -46 -17 -52 -13 -6 3 -7
1 -4 -4 4 -6 -3 -18 -16 -26 -32 -21 -83 -72 -103 -102 -9 -13 -21 -22 -27
-18 -6 3 -7 1 -3 -5 4 -6 -6 -35 -21 -64 l-28 -53 -3 -312 -3 -313 198 0 c141
-1 205 -4 221 -13 54 -30 52 7 52 -1027 0 -672 -3 -966 -11 -983 -23 -51 -50
-57 -264 -57 l-196 0 3 -313 3 -312 38 -71 c68 -127 194 -226 325 -253 38 -8
578 -11 1871 -11 1634 0 1823 2 1872 16 173 51 299 179 344 349 12 46 15 119
15 327 l0 268 -199 0 c-213 0 -242 6 -268 52 -10 18 -12 225 -13 986 0 882 1
966 17 992 9 16 27 33 40 39 15 7 101 11 223 11 l200 0 0 273 c0 222 -3 284
-16 328 -20 68 -53 133 -92 182 -34 42 -124 117 -141 117 -6 0 -11 4 -11 10 0
5 -3 9 -7 8 -5 -1 -39 8 -77 20 l-68 22 -1827 -1 c-1543 0 -1834 -3 -1879 -14z
m438 -465 l0 -160 -160 0 -160 0 0 160 0 160 160 0 160 0 0 -160z m800 0 l0
-160 -160 0 -160 0 0 160 0 160 160 0 160 0 0 -160z m800 0 l0 -160 -160 0
-160 0 0 160 0 160 160 0 160 0 0 -160z m800 0 l0 -160 -160 0 -160 0 0 160 0
160 160 0 160 0 0 -160z m800 0 l0 -160 -160 0 -160 0 0 160 0 160 160 0 160
0 0 -160z m-530 -497 c16 -9 33 -27 39 -40 16 -36 15 -1933 -1 -1968 -26 -58
37 -55 -1261 -55 -848 0 -1203 3 -1226 11 -64 22 -61 -29 -61 1029 0 881 1
964 17 990 9 16 26 33 37 39 14 6 437 10 1224 10 1106 1 1206 0 1232 -16z
m-2670 -2543 l0 -160 -160 0 -160 0 0 160 0 160 160 0 160 0 0 -160z m800 0
l0 -160 -160 0 -160 0 0 160 0 160 160 0 160 0 0 -160z m800 0 l0 -160 -160 0
-160 0 0 160 0 160 160 0 160 0 0 -160z m800 0 l0 -160 -160 0 -160 0 0 160 0
160 160 0 160 0 0 -160z m800 0 l0 -160 -160 0 -160 0 0 160 0 160 160 0 160
0 0 -160z"/>
<path d="M2125 2864 c-227 -48 -404 -207 -476 -426 -20 -62 -24 -92 -24 -203
1 -148 16 -208 85 -325 76 -129 196 -225 345 -276 69 -23 95 -27 190 -26 91 0
123 5 183 26 204 71 354 232 413 441 9 31 14 97 14 175 -1 105 -4 135 -24 190
-60 166 -183 310 -320 372 -41 19 -134 53 -153 57 -5 0 -9 1 -10 2 -20 8 -178
3 -223 -7z m-71 -78 c-3 -7 -34 -28 -68 -46 -35 -17 -87 -54 -116 -81 -28 -28
-59 -49 -68 -47 -26 5 90 111 167 152 71 38 93 44 85 22z m581 -114 c40 -39
53 -58 42 -60 -8 -2 -36 17 -61 41 -26 24 -73 59 -105 78 -33 19 -62 42 -64
52 -9 30 125 -48 188 -111z m-438 40 l40 -21 1 -85 1 -85 -98 -70 c-54 -39
-105 -71 -113 -71 -8 0 -45 11 -84 23 -82 28 -94 45 -94 134 0 61 0 61 49 105
26 23 70 55 97 71 41 23 58 27 105 23 30 -2 74 -13 96 -24z m302 -11 c36 -22
84 -58 106 -81 39 -40 40 -43 43 -119 l4 -77 -86 -23 c-48 -13 -93 -20 -101
-17 -8 3 -55 35 -105 71 l-90 67 0 88 0 88 33 15 c84 38 115 36 196 -12z
m-548 -332 c38 -12 72 -26 76 -32 10 -16 73 -209 73 -224 0 -6 -24 -48 -52
-93 l-53 -81 -52 6 c-29 3 -78 15 -109 26 -49 18 -59 27 -74 63 -10 22 -24 69
-30 103 -12 61 -12 61 25 130 42 79 81 123 108 123 10 0 50 -9 88 -21z m736
-6 c35 -39 66 -102 60 -124 -3 -12 -1 -17 5 -12 27 16 -13 -169 -48 -224 -14
-22 -80 -48 -150 -59 l-40 -6 -55 84 -56 85 39 119 38 120 77 21 c101 28 100
28 130 -4z m-987 -233 c6 -36 20 -85 31 -109 12 -27 16 -49 10 -58 -16 -30
-81 162 -81 241 0 43 27 -8 40 -74z m1120 63 c-2 -75 -79 -284 -87 -237 -2 11
5 41 16 66 10 24 24 71 31 104 6 32 13 65 15 72 6 18 25 15 25 -5z m-386 -190
c33 -52 52 -91 47 -97 -5 -6 -12 -22 -16 -36 -4 -14 -25 -53 -47 -87 -43 -68
-60 -75 -178 -75 -92 0 -117 9 -149 55 -30 44 -71 132 -71 151 0 6 25 48 55
94 l55 82 124 0 124 0 56 -87z m-39 -322 c8 -13 -4 -19 -61 -27 -87 -14 -214
-4 -214 15 0 5 50 9 110 8 61 0 113 3 117 6 10 10 41 8 48 -2z"/>
</g>
</svg>
