<?xml version="1.0" standalone="no"?>
<!DOCTYPE svg PUBLIC "-//W3C//DTD SVG 20010904//EN"
 "http://www.w3.org/TR/2001/REC-SVG-20010904/DTD/svg10.dtd">
<svg version="1.0" xmlns="http://www.w3.org/2000/svg"
 width="3590.000000pt" height="3590.000000pt" viewBox="0 0 3590.000000 3590.000000"
 preserveAspectRatio="xMidYMid meet">
<metadata>
Created by potrace 1.11, written by Peter Selinger 2001-2013
</metadata>
<g transform="translate(0.000000,3590.000000) scale(0.100000,-0.100000)"
fill="#000000" stroke="none">
<path d="M9065 30013 c-1599 -29 -2923 -156 -3948 -379 -1677 -364 -2771 -993
-3497 -2010 -308 -432 -567 -1009 -724 -1615 -195 -749 -289 -1545 -338 -2854
-19 -495 -19 -9095 0 -9500 81 -1769 286 -2959 687 -3985 676 -1729 1922
-2823 3890 -3415 1000 -301 2131 -467 3660 -537 409 -19 17736 -19 18185 0
1472 61 2442 180 3370 412 854 214 1590 535 2163 942 1143 814 1837 1975 2217
3707 172 788 265 1580 332 2846 16 307 24 8010 9 8740 -35 1652 -136 2654
-356 3535 -256 1024 -671 1778 -1310 2381 -713 672 -1703 1119 -3090 1394
-983 195 -2108 300 -3620 335 -346 8 -17193 11 -17630 3z m9202 -5064 c15 -6
100 -13 188 -16 96 -3 177 -11 203 -19 23 -8 71 -14 105 -14 34 0 80 -5 102
-11 44 -11 143 -26 245 -38 36 -4 78 -13 93 -19 16 -7 41 -12 58 -12 33 0 105
-16 164 -36 23 -8 59 -14 82 -14 23 0 45 -4 48 -10 3 -5 22 -10 40 -10 19 0
49 -6 67 -14 51 -21 99 -37 138 -46 19 -4 49 -13 65 -19 17 -5 68 -22 115 -36
47 -15 98 -33 113 -41 16 -8 39 -14 51 -14 12 0 31 -7 42 -15 10 -8 27 -15 36
-15 16 0 67 -19 110 -41 24 -12 96 -38 133 -49 55 -15 177 -71 505 -232 179
-88 334 -168 345 -178 11 -10 45 -30 75 -45 30 -15 62 -33 70 -41 9 -7 43 -27
75 -45 33 -17 67 -37 75 -44 22 -19 121 -85 129 -85 3 -1 22 -14 41 -30 19
-17 39 -30 46 -30 6 0 19 -9 29 -21 11 -11 62 -49 115 -85 134 -91 194 -136
244 -182 24 -22 53 -45 65 -52 12 -6 43 -33 69 -59 26 -26 60 -55 75 -65 22
-14 252 -228 380 -353 75 -74 341 -361 356 -383 8 -14 36 -47 60 -73 25 -26
52 -58 61 -71 8 -13 32 -43 52 -67 61 -71 120 -149 173 -229 27 -41 59 -86 71
-100 12 -14 51 -70 87 -125 36 -55 74 -111 85 -125 11 -14 29 -45 42 -70 12
-25 32 -58 45 -75 12 -16 36 -58 53 -92 18 -34 36 -64 41 -67 5 -3 28 -43 51
-88 115 -222 150 -294 150 -305 0 -7 3 -13 8 -13 4 0 18 -24 31 -52 12 -29 40
-89 61 -133 21 -44 42 -91 46 -105 4 -14 24 -60 45 -104 22 -43 39 -83 39 -90
0 -6 14 -47 31 -91 43 -113 100 -276 119 -340 11 -40 30 -93 46 -133 8 -18 14
-47 14 -65 0 -18 7 -41 15 -51 8 -11 15 -32 15 -47 0 -15 5 -31 10 -34 6 -3
10 -23 10 -43 1 -20 7 -48 15 -62 8 -14 14 -40 15 -59 0 -18 6 -54 14 -80 23
-74 37 -132 45 -192 5 -30 13 -65 20 -77 6 -11 11 -41 11 -66 0 -24 5 -57 12
-73 12 -29 23 -110 36 -278 4 -55 12 -107 17 -115 36 -55 36 -1485 0 -1540 -5
-8 -13 -60 -17 -115 -13 -168 -24 -249 -36 -278 -7 -16 -12 -49 -12 -73 0 -25
-5 -55 -11 -66 -7 -12 -15 -47 -20 -77 -8 -60 -22 -118 -45 -192 -8 -26 -14
-61 -14 -78 0 -18 -5 -42 -12 -54 -6 -12 -15 -40 -19 -62 -18 -94 -27 -127
-38 -138 -6 -6 -11 -24 -11 -40 0 -15 -5 -38 -12 -50 -6 -12 -15 -38 -19 -57
-9 -43 -27 -96 -45 -132 -8 -14 -14 -33 -14 -42 0 -17 -41 -138 -89 -261 -17
-44 -31 -85 -31 -91 0 -7 -17 -47 -39 -90 -21 -44 -42 -90 -46 -104 -4 -14
-24 -61 -45 -105 -21 -44 -48 -104 -61 -132 -13 -29 -27 -53 -31 -53 -5 0 -8
-6 -8 -12 0 -12 -35 -84 -150 -306 -23 -45 -46 -85 -51 -88 -5 -3 -23 -33 -41
-67 -17 -34 -41 -75 -53 -92 -13 -16 -35 -52 -49 -80 -15 -27 -38 -66 -51 -85
-14 -19 -55 -79 -92 -133 -168 -243 -251 -358 -286 -397 -41 -46 -165 -196
-185 -223 -19 -27 -243 -270 -362 -392 -83 -86 -368 -349 -400 -370 -19 -12
-51 -40 -70 -62 -20 -22 -47 -46 -59 -53 -13 -7 -43 -30 -67 -52 -50 -46 -110
-91 -244 -182 -53 -36 -104 -74 -115 -85 -10 -12 -23 -21 -29 -21 -7 0 -27
-13 -46 -30 -19 -16 -38 -29 -42 -30 -4 0 -35 -20 -70 -45 -35 -24 -93 -60
-130 -80 -36 -19 -69 -39 -73 -45 -4 -6 -37 -26 -73 -45 -37 -20 -80 -44 -97
-55 -91 -60 -800 -400 -834 -400 -6 0 -27 -7 -48 -16 -21 -9 -51 -22 -68 -29
-16 -7 -47 -20 -68 -29 -21 -9 -46 -16 -55 -16 -10 0 -27 -7 -38 -15 -10 -8
-29 -15 -41 -15 -12 0 -34 -6 -50 -14 -15 -8 -68 -27 -118 -42 -49 -15 -105
-33 -123 -40 -18 -8 -41 -14 -52 -14 -11 0 -37 -6 -57 -13 -21 -8 -54 -20 -73
-27 -36 -13 -90 -25 -175 -40 -27 -5 -81 -16 -120 -25 -38 -9 -93 -20 -122
-25 -28 -4 -58 -12 -65 -16 -12 -8 -52 -14 -213 -30 -33 -3 -79 -12 -103 -20
-23 -8 -76 -14 -117 -14 -41 0 -92 -6 -112 -14 -53 -20 -266 -29 -753 -30
-453 -1 -698 8 -774 30 -27 8 -84 14 -125 14 -42 0 -94 5 -116 11 -36 9 -89
17 -245 37 -30 4 -61 11 -68 16 -8 5 -39 12 -70 17 -62 9 -184 32 -247 47 -22
6 -56 13 -75 17 -38 7 -126 31 -175 47 -43 14 -92 28 -155 43 -51 12 -94 26
-145 46 -11 4 -42 15 -70 24 -27 10 -81 29 -120 45 -38 15 -86 33 -105 39
-159 57 -208 76 -225 87 -11 8 -27 14 -35 14 -9 0 -21 5 -27 11 -7 7 -34 20
-60 29 -42 15 -262 117 -303 141 -8 5 -73 38 -145 75 -71 36 -155 82 -186 100
-31 19 -59 34 -62 34 -11 0 -275 166 -287 181 -3 3 -32 21 -65 41 -33 19 -80
49 -105 67 -25 17 -63 44 -85 59 -22 15 -52 39 -66 54 -15 14 -40 33 -55 42
-16 8 -47 31 -69 51 -22 19 -45 35 -51 35 -5 0 -23 14 -40 31 -16 17 -42 38
-59 46 -16 9 -70 54 -119 100 -48 46 -105 95 -125 108 -45 29 -601 586 -601
602 0 7 -37 52 -83 100 -46 48 -94 104 -107 123 -13 19 -41 54 -62 77 -21 24
-38 47 -38 52 0 6 -18 29 -40 53 -22 24 -40 48 -40 54 0 5 -20 34 -45 63 -25
29 -45 56 -45 61 0 5 -12 21 -27 37 -29 30 -93 119 -93 130 0 3 -29 49 -64
102 -35 53 -70 110 -79 126 -8 17 -40 67 -70 111 -30 45 -80 131 -109 190 -30
60 -100 200 -156 311 -56 111 -102 208 -102 215 0 8 -16 46 -35 87 -19 40 -35
78 -35 84 0 18 -42 100 -67 130 -15 19 -23 42 -23 66 0 20 -6 45 -14 56 -7 11
-16 34 -19 50 -15 80 -34 142 -63 213 -8 18 -14 40 -14 50 0 9 -7 26 -15 36
-8 11 -15 30 -15 42 0 12 -6 35 -14 51 -8 15 -19 46 -24 68 -12 48 -39 151
-57 220 -7 28 -18 77 -25 110 -6 33 -16 76 -21 96 -5 20 -9 52 -9 70 -1 19 -7
45 -15 59 -8 14 -14 49 -15 77 0 29 -6 70 -14 90 -8 21 -17 69 -19 106 -3 38
-10 74 -16 80 -6 6 -11 46 -11 92 0 44 -5 98 -11 120 -21 75 -33 370 -33 775
1 482 11 744 30 782 8 16 14 59 14 106 0 48 6 94 15 115 8 20 15 58 15 85 0
27 7 66 15 85 8 20 15 57 15 83 0 26 6 70 14 98 17 62 46 203 55 271 4 28 12
60 19 72 7 12 12 35 12 52 0 17 6 45 14 63 22 54 36 103 36 130 0 15 6 39 14
55 14 29 31 76 46 128 19 62 83 251 96 283 8 17 20 47 28 65 7 17 21 49 30 70
9 21 16 44 16 52 0 7 16 46 35 86 19 41 35 80 35 87 0 18 322 661 367 732 70
112 103 166 129 215 14 28 33 54 40 58 8 4 14 17 14 27 0 10 5 22 10 25 6 3
32 39 58 79 26 40 53 79 60 87 37 42 112 145 112 154 0 6 18 30 40 54 22 25
40 48 40 53 0 5 27 38 60 73 33 35 60 70 60 78 0 7 23 35 50 62 28 28 63 68
78 90 15 22 96 112 180 199 85 88 159 170 164 182 6 12 20 26 33 32 12 6 92
78 176 159 85 82 174 163 199 180 25 17 63 50 85 73 22 23 56 50 75 60 19 10
55 39 80 64 24 25 50 46 57 46 6 0 29 16 50 36 21 19 52 42 68 51 17 9 37 22
45 29 46 43 310 223 400 274 14 7 72 42 129 77 57 35 133 79 170 98 36 20 74
40 84 45 41 24 59 33 182 94 140 69 344 166 350 166 3 0 28 11 57 24 29 13 77
32 106 41 29 10 55 21 58 26 3 5 14 9 25 9 11 0 47 14 81 30 33 17 68 30 77
30 9 0 26 7 37 15 10 8 31 15 45 15 14 0 34 7 45 15 10 8 31 15 46 15 15 0 30
5 33 10 3 6 15 10 25 10 11 0 34 6 52 14 59 24 102 38 153 48 28 5 54 14 60
19 5 5 21 9 35 9 14 0 31 5 38 12 6 6 35 15 64 20 102 17 153 27 218 43 36 9
91 21 123 26 33 5 64 12 70 16 7 4 41 11 77 15 171 20 217 27 243 37 16 6 61
11 101 11 40 0 92 6 117 14 27 9 106 16 206 19 89 3 170 10 180 16 25 15 771
15 810 0z"/>
<path d="M17755 24620 c-11 -5 -92 -9 -180 -10 -177 -1 -484 -22 -503 -34 -7
-4 -64 -11 -126 -16 -63 -5 -124 -13 -135 -19 -11 -6 -44 -11 -73 -11 -29 -1
-64 -7 -78 -15 -14 -8 -43 -15 -65 -15 -22 0 -51 -7 -65 -15 -14 -8 -39 -14
-57 -15 -17 0 -44 -5 -60 -12 -15 -6 -50 -15 -78 -19 -119 -19 -238 -51 -259
-70 -6 -5 -21 -9 -35 -9 -24 0 -76 -14 -161 -45 -19 -7 -55 -18 -80 -25 -58
-15 -106 -31 -205 -70 -44 -17 -93 -35 -110 -40 -16 -4 -54 -20 -82 -34 -29
-14 -57 -26 -62 -26 -44 0 -650 -301 -846 -421 -16 -10 -48 -28 -70 -40 -60
-33 -294 -187 -344 -228 -25 -20 -59 -45 -77 -56 -134 -84 -217 -154 -252
-215 -15 -25 -47 -77 -73 -115 -25 -39 -56 -88 -68 -110 -11 -22 -29 -51 -40
-65 -10 -14 -37 -56 -61 -95 -123 -200 -192 -299 -277 -395 -29 -33 -53 -64
-53 -70 0 -6 -27 -40 -60 -75 -33 -35 -60 -69 -60 -76 0 -6 -26 -38 -58 -72
-32 -34 -70 -78 -84 -97 -14 -19 -37 -48 -52 -63 -14 -15 -33 -40 -41 -55 -8
-15 -37 -51 -65 -81 -27 -29 -50 -59 -50 -65 0 -7 -21 -32 -46 -56 -25 -25
-53 -58 -61 -75 -9 -16 -35 -51 -58 -76 -23 -25 -54 -63 -68 -85 -13 -21 -37
-50 -51 -64 -15 -13 -37 -40 -49 -60 -12 -19 -34 -47 -48 -61 -15 -15 -41 -46
-58 -69 -17 -24 -49 -64 -71 -89 -54 -62 -142 -168 -160 -195 -8 -11 -38 -50
-67 -86 -29 -36 -64 -78 -77 -95 -13 -16 -50 -61 -83 -100 -82 -98 -123 -156
-123 -175 0 -9 -3 -20 -7 -24 -8 -7 -15 -27 -68 -176 -20 -58 -40 -109 -45
-115 -4 -5 -10 -26 -13 -45 -4 -32 -18 -77 -39 -125 -21 -49 -68 -211 -68
-234 -1 -14 -7 -37 -15 -51 -8 -14 -15 -41 -15 -60 0 -19 -7 -44 -15 -54 -8
-11 -15 -36 -15 -55 -1 -20 -7 -47 -15 -61 -8 -14 -14 -44 -15 -66 0 -23 -7
-58 -15 -77 -8 -20 -15 -55 -15 -77 0 -23 -5 -51 -12 -63 -13 -23 -24 -96 -37
-237 -4 -47 -11 -91 -15 -98 -12 -20 -27 -219 -35 -462 -4 -137 -12 -236 -19
-253 -16 -37 -16 -237 0 -274 7 -17 15 -116 19 -253 8 -249 22 -418 37 -458 6
-15 13 -60 15 -100 3 -58 9 -79 25 -95 21 -20 22 -20 42 -2 19 17 20 29 20
257 0 132 4 247 9 257 5 9 13 167 17 350 6 298 9 331 23 325 9 -3 70 -24 136
-46 66 -21 124 -43 130 -49 5 -5 20 -9 35 -9 14 0 34 -7 44 -15 11 -8 28 -15
38 -15 9 0 32 -6 50 -14 52 -21 101 -38 125 -41 12 -2 27 -6 34 -10 13 -9 277
-102 324 -115 33 -9 86 -27 125 -43 14 -5 39 -13 55 -17 30 -8 82 -26 120 -41
81 -32 126 -48 165 -59 25 -6 58 -18 73 -26 16 -8 38 -14 49 -14 11 0 32 -6
46 -14 48 -24 102 -46 117 -46 7 0 26 -6 42 -14 38 -18 92 -37 126 -43 31 -6
64 -43 74 -82 3 -14 18 -53 33 -86 15 -33 35 -85 45 -115 16 -52 29 -83 85
-220 12 -30 29 -73 37 -95 7 -22 21 -55 29 -73 9 -19 26 -64 39 -100 37 -109
165 -435 191 -485 8 -16 14 -35 14 -42 0 -7 18 -58 40 -113 22 -54 40 -104 40
-109 0 -6 6 -16 14 -22 8 -6 16 -24 19 -39 5 -25 17 -60 83 -230 53 -136 61
-158 73 -187 19 -44 42 -107 48 -130 3 -11 18 -48 34 -83 16 -34 29 -69 29
-77 0 -8 11 -38 24 -67 28 -62 64 -150 78 -193 6 -16 16 -43 23 -60 7 -16 21
-52 30 -80 10 -27 24 -59 32 -70 7 -11 13 -26 13 -33 0 -8 11 -40 24 -71 53
-126 88 -226 101 -289 8 -38 -12 -67 -75 -107 -19 -12 -72 -56 -116 -96 -45
-41 -99 -87 -120 -104 -21 -16 -84 -70 -140 -120 -56 -49 -123 -108 -150 -130
-27 -22 -78 -67 -115 -100 -36 -33 -81 -71 -99 -85 -19 -14 -63 -53 -99 -86
-37 -34 -83 -73 -103 -87 -60 -40 -228 -202 -228 -220 0 -16 203 -222 238
-241 11 -6 50 -39 87 -73 37 -35 71 -63 76 -63 5 0 38 -27 75 -60 36 -33 71
-60 78 -60 7 0 25 -14 42 -31 16 -17 43 -38 59 -46 17 -9 44 -28 60 -42 32
-27 392 -269 435 -291 14 -7 27 -16 30 -20 3 -4 57 -35 120 -70 63 -35 127
-71 142 -81 15 -11 34 -19 43 -19 8 0 15 -4 15 -10 0 -5 8 -10 19 -10 10 0 24
-7 31 -15 7 -8 20 -15 30 -15 10 0 23 -7 30 -15 7 -8 20 -15 30 -15 10 0 23
-7 30 -15 7 -8 20 -15 30 -15 10 0 23 -7 30 -15 7 -8 16 -15 20 -15 5 0 59
-24 122 -54 62 -29 174 -77 248 -106 74 -29 160 -63 190 -76 30 -12 100 -37
155 -54 55 -18 114 -38 132 -46 17 -8 43 -14 57 -14 14 0 40 -6 58 -14 18 -8
60 -22 93 -31 33 -9 76 -22 95 -28 34 -10 60 -16 169 -36 30 -6 59 -15 65 -21
5 -5 28 -10 50 -10 23 0 50 -7 60 -15 11 -9 42 -15 70 -15 28 0 69 -7 91 -15
22 -8 58 -14 80 -15 22 0 58 -7 80 -15 22 -8 67 -15 100 -15 33 0 80 -5 105
-11 98 -22 574 -51 830 -51 237 0 732 30 835 51 28 5 75 10 106 10 31 1 76 8
99 16 23 8 61 15 84 15 22 1 52 7 66 15 14 8 50 15 80 15 30 0 66 7 80 15 14
8 39 14 57 15 17 0 44 5 60 11 15 7 48 16 73 20 79 14 134 27 165 37 17 6 46
16 65 22 19 7 49 15 65 17 17 3 36 10 43 16 8 6 35 14 60 18 75 11 442 142
590 210 34 16 71 29 81 29 10 0 24 7 31 15 7 8 19 15 26 15 19 0 552 266 589
295 17 12 62 38 100 58 39 19 108 60 154 91 46 31 85 56 87 56 1 0 30 19 64
43 86 58 140 94 174 115 16 9 43 29 60 43 17 14 47 36 66 49 19 13 44 33 56
44 12 12 51 44 89 71 37 28 104 83 149 124 44 40 97 84 116 96 19 13 170 160
335 328 278 282 387 401 441 481 12 17 44 56 70 88 97 112 309 408 368 513 17
31 58 91 76 112 5 7 10 18 10 24 0 7 9 22 19 33 11 12 33 49 50 82 17 34 37
66 44 72 7 6 37 60 66 119 29 59 93 187 141 283 49 96 89 182 89 191 1 9 21
58 46 108 25 50 45 97 45 104 0 7 11 37 25 65 14 29 25 58 25 66 0 7 12 40 26
72 15 33 30 70 34 84 5 14 18 50 29 80 12 30 21 66 21 80 1 14 7 36 15 50 8
14 14 37 15 51 0 14 7 34 15 45 8 10 15 28 15 39 0 10 6 37 14 60 8 22 19 64
25 93 6 28 16 76 22 105 6 28 17 70 25 92 8 23 14 59 14 80 1 22 7 51 15 65 8
14 14 41 15 61 0 20 7 56 15 79 8 23 15 62 15 86 0 23 5 55 11 71 16 38 29
154 35 303 4 83 10 131 20 144 11 16 14 63 14 214 0 175 -2 193 -17 198 -10 3
-25 9 -34 14 -9 5 -34 12 -55 15 -44 8 -133 31 -179 47 -32 11 -92 24 -165 37
-25 4 -55 13 -67 19 -12 7 -37 12 -55 12 -19 0 -43 7 -54 15 -10 8 -26 15 -35
15 -9 0 -19 10 -22 23 -4 20 -16 54 -37 112 -4 11 -21 54 -37 95 -36 89 -52
135 -63 175 -11 41 -30 94 -46 130 -7 17 -16 41 -20 55 -3 14 -14 43 -24 65
-21 49 -39 100 -50 140 -5 17 -27 82 -50 145 -22 63 -45 129 -49 145 -14 45
-32 96 -47 130 -7 17 -18 48 -25 70 -24 81 -94 269 -114 308 -8 16 -15 38 -15
50 0 12 -7 31 -15 41 -8 11 -15 27 -15 35 0 9 -13 50 -29 91 -16 41 -35 91
-41 110 -7 19 -18 51 -25 70 -7 19 -22 69 -34 110 -12 41 -29 88 -36 103 -8
16 -15 39 -15 51 0 12 -4 26 -9 32 -12 12 -45 97 -61 154 -7 25 -21 68 -31 95
-10 28 -30 82 -44 120 -15 39 -33 82 -41 97 -8 14 -14 37 -14 50 0 13 -4 28
-9 34 -5 5 -23 49 -39 98 -27 81 -29 93 -17 130 22 74 35 136 35 174 0 20 7
46 15 56 8 11 15 36 15 55 1 20 7 47 15 61 8 14 15 41 15 60 0 19 7 46 15 60
8 14 15 43 15 65 0 22 7 51 15 65 8 14 14 38 15 53 0 16 5 38 11 49 12 22 27
99 36 183 3 27 11 59 19 70 8 11 14 34 14 53 0 18 7 47 16 64 22 43 12 68 -57
145 -34 37 -71 84 -84 103 -29 44 -586 603 -630 633 -18 12 -65 49 -103 82
-39 33 -107 89 -152 125 -45 36 -93 75 -107 88 -14 12 -29 22 -33 22 -4 0 -32
21 -62 48 -30 26 -68 55 -84 64 -16 10 -48 30 -70 45 -76 51 -94 63 -120 81
-15 9 -37 24 -49 32 -49 33 -147 90 -154 90 -5 0 -14 7 -22 16 -7 9 -40 29
-73 46 -34 17 -74 41 -91 53 -39 30 -570 295 -590 295 -9 0 -56 20 -105 45
-69 35 -101 45 -137 45 -27 0 -64 5 -83 11 -19 6 -78 15 -130 20 -163 16 -261
27 -385 44 -66 9 -165 20 -220 24 -55 4 -110 13 -122 19 -12 7 -60 12 -107 12
-47 0 -88 5 -91 10 -3 6 -39 10 -78 10 -40 0 -90 7 -112 15 -22 8 -71 14 -110
15 -49 0 -91 8 -140 26 -38 14 -83 29 -100 34 -16 5 -68 23 -115 40 -47 17
-94 34 -105 37 -11 3 -29 12 -40 20 -11 7 -27 13 -37 13 -9 0 -32 6 -50 14
-205 88 -304 116 -403 115 -44 0 -89 -4 -100 -9z m440 -831 c39 -39 95 -88
125 -109 30 -21 120 -104 200 -185 80 -81 165 -160 190 -177 25 -17 119 -105
210 -194 91 -90 181 -175 200 -189 19 -14 112 -102 207 -195 94 -92 179 -172
188 -177 8 -5 102 -91 208 -191 406 -384 593 -558 630 -585 20 -15 37 -33 37
-40 0 -14 -145 -234 -181 -274 -14 -16 -42 -55 -63 -88 -56 -88 -95 -145 -168
-243 -27 -35 -48 -66 -48 -70 -1 -4 -14 -23 -30 -42 -17 -19 -30 -39 -30 -44
0 -5 -12 -22 -27 -38 -14 -15 -36 -43 -47 -63 -33 -54 -139 -209 -151 -220
-11 -10 -50 -66 -90 -129 -11 -18 -30 -45 -42 -60 -13 -16 -23 -34 -23 -41 0
-6 -12 -22 -26 -36 -14 -13 -45 -53 -68 -89 -66 -101 -73 -112 -105 -155 -16
-22 -56 -78 -89 -125 -32 -47 -74 -107 -93 -133 -19 -27 -42 -61 -51 -75 -10
-15 -24 -36 -33 -47 -60 -78 -97 -131 -140 -204 -11 -19 -38 -55 -60 -81 -22
-26 -49 -62 -60 -81 -46 -77 -58 -95 -76 -115 -10 -11 -19 -25 -19 -31 0 -5
-10 -18 -21 -29 -12 -10 -33 -37 -47 -59 -50 -81 -70 -95 -131 -95 -31 1 -67
7 -81 15 -14 8 -41 14 -61 15 -20 0 -56 7 -79 15 -23 8 -62 15 -86 15 -23 0
-46 5 -49 10 -3 6 -34 10 -69 10 -39 0 -69 5 -82 15 -10 8 -41 15 -69 15 -27
0 -61 7 -75 15 -14 8 -44 14 -67 15 -23 0 -54 5 -70 11 -15 6 -53 15 -83 19
-63 9 -154 26 -220 42 -63 15 -261 47 -346 57 -38 4 -77 11 -85 16 -8 5 -39
13 -69 17 -30 4 -82 12 -115 16 -33 5 -73 14 -88 20 -16 7 -45 12 -67 12 -21
0 -51 7 -66 15 -16 8 -49 15 -74 15 -25 0 -63 7 -85 15 -22 8 -56 14 -76 15
-20 0 -53 7 -72 15 -20 8 -52 15 -71 15 -19 0 -47 5 -63 11 -32 13 -115 27
-218 37 -38 4 -80 13 -92 20 -12 6 -37 12 -56 12 -19 0 -51 7 -70 15 -20 8
-57 15 -82 15 -26 0 -56 5 -68 12 -12 7 -47 15 -77 19 -52 7 -83 13 -212 40
-29 6 -74 13 -101 16 -32 3 -50 11 -57 24 -13 23 -20 146 -31 564 -9 336 -21
701 -39 1150 -6 138 -14 420 -20 627 -5 224 -13 386 -20 397 -15 29 -13 226 3
239 7 6 78 33 157 60 197 68 211 73 242 88 14 8 34 14 45 14 10 0 27 7 37 15
11 8 28 15 38 15 9 0 41 11 70 23 59 27 108 45 153 57 41 11 94 30 130 46 17
7 41 16 55 20 14 3 43 15 65 24 22 10 49 20 60 23 11 3 72 24 135 47 63 22
169 59 235 81 66 22 124 44 129 49 6 6 18 10 28 10 16 0 69 20 113 43 11 6 33
13 50 18 16 4 68 21 115 39 47 17 95 34 107 37 12 3 28 11 34 19 6 8 20 14 30
14 10 0 33 6 51 14 42 17 95 36 133 46 17 4 62 20 100 35 39 15 84 30 100 35
17 4 50 15 75 24 25 10 60 21 79 26 18 5 38 13 44 19 6 6 19 11 28 11 9 0 43
12 75 26 33 15 73 30 89 35 59 16 193 65 270 99 20 9 75 28 85 29 3 1 37 -31
75 -70z m1543 -7701 c6 -6 51 -13 99 -15 49 -3 105 -11 126 -19 21 -8 72 -14
116 -14 47 0 93 -6 114 -15 22 -9 68 -15 116 -15 44 0 92 -5 108 -12 27 -10
112 -20 338 -37 55 -4 113 -12 128 -19 16 -7 63 -12 105 -12 42 0 95 -7 117
-15 22 -8 73 -14 113 -15 40 0 83 -5 94 -11 12 -6 67 -15 122 -19 56 -5 121
-13 146 -18 25 -6 113 -14 195 -18 83 -4 167 -13 189 -20 21 -8 69 -14 106
-14 37 0 84 -7 103 -15 22 -9 68 -15 115 -15 45 0 98 -7 122 -15 23 -8 56 -15
72 -15 27 0 30 -3 24 -22 -4 -13 -11 -50 -14 -83 -4 -33 -11 -65 -15 -72 -4
-6 -12 -45 -18 -85 -6 -40 -15 -98 -20 -128 -5 -30 -13 -86 -17 -125 -5 -38
-14 -83 -20 -98 -7 -16 -12 -45 -12 -66 0 -21 -7 -55 -15 -74 -8 -20 -15 -52
-15 -70 0 -19 -7 -51 -15 -70 -8 -20 -15 -59 -15 -87 0 -28 -5 -61 -12 -73
-11 -21 -21 -80 -36 -217 -4 -36 -13 -75 -20 -87 -7 -12 -12 -42 -12 -66 0
-25 -7 -58 -15 -73 -8 -16 -15 -48 -15 -70 0 -23 -7 -58 -15 -77 -8 -20 -15
-60 -15 -89 -1 -29 -7 -64 -15 -78 -8 -14 -14 -44 -15 -66 0 -23 -7 -61 -15
-84 -8 -23 -15 -57 -15 -75 0 -33 -7 -76 -36 -206 -8 -37 -14 -83 -14 -104 0
-20 -5 -45 -10 -56 -6 -10 -15 -47 -20 -82 -20 -137 -30 -167 -60 -167 -11 0
-50 -14 -87 -32 -38 -17 -77 -35 -88 -39 -11 -4 -49 -21 -85 -37 -36 -16 -76
-33 -90 -37 -14 -4 -60 -25 -104 -46 -43 -22 -83 -39 -89 -39 -7 0 -50 -17
-97 -39 -128 -58 -233 -102 -255 -108 -11 -3 -62 -25 -113 -49 -51 -24 -97
-44 -102 -44 -5 0 -21 -6 -37 -14 -44 -21 -90 -42 -193 -86 -52 -22 -108 -47
-125 -54 -56 -26 -170 -75 -220 -94 -95 -37 -250 -103 -313 -133 -34 -16 -67
-29 -73 -29 -6 0 -23 -7 -37 -15 -15 -8 -54 -26 -87 -40 -33 -14 -88 -39 -123
-56 -34 -16 -68 -29 -75 -29 -6 0 -50 -18 -97 -39 -47 -21 -110 -49 -140 -61
-30 -12 -102 -43 -160 -67 -58 -25 -117 -50 -131 -56 -26 -10 -35 -2 -255 224
-241 246 -422 435 -589 612 -97 103 -440 459 -731 760 -79 82 -146 153 -150
158 -3 6 19 37 50 69 31 32 56 64 56 70 0 6 52 64 115 130 63 65 115 123 115
129 0 6 50 63 110 126 61 63 110 120 110 125 0 6 48 61 108 123 59 62 118 128
132 147 14 18 48 56 75 85 28 28 90 96 138 151 48 54 110 124 138 154 73 80
271 305 294 334 17 21 78 90 228 257 12 15 63 71 111 125 48 55 111 123 139
153 29 29 62 68 75 85 12 17 66 77 118 133 l95 103 88 0 c53 0 92 -5 99 -12z"/>
</g>
</svg>
